<?xml version="1.0" encoding="utf-8"?>
<!-- Generator: Adobe Illustrator 27.8.1, SVG Export Plug-In . SVG Version: 6.00 Build 0)  -->
<svg version="1.1" id="Layer_1" xmlns="http://www.w3.org/2000/svg" xmlns:xlink="http://www.w3.org/1999/xlink" x="0px" y="0px"
	 viewBox="0 0 250 213" style="enable-background:new 0 0 250 213;" xml:space="preserve">
<style type="text/css">
	.st0{fill:#58642C;}
</style>
<path class="st0" d="M146.7,147.7l21.6-21.5l-6.7-6.7l-4.3,4.3l2.4,2.4l-13,13L125,117.4l-21.7,21.7l-13-13l5.1-5.1l7.9,7.9
	l21.7-21.7l21.7,21.7l7.9-7.9l4.3-4.3l0,0l9.4-9.4l-41.1-41.1l-2.1-2.1l-43.3,43.2l9.4,9.4l-9.4,9.4l21.6,21.5L122,129v29.3h6.1V129
	L146.7,147.7z M90.3,107.4L125,72.7l34.7,34.7l-5.1,5.1l-27.5-27.4l-2.1-2.1l-26.9,26.9l4.3,4.3L125,91.5l25.3,25.3l-3.6,3.6
	L125,98.6l-21.7,21.7l-3.6-3.6l-4.3-4.3L90.3,107.4z"/>
</svg>
